<!--?xml version="1.0" standalone="no"?-->
              <svg id="sw-js-blob-svg" viewBox="0 0 100 100" xmlns="http://www.w3.org/2000/svg" version="1.1">
                    <defs> 
                        <linearGradient id="sw-gradient" x1="0" x2="1" y1="1" y2="0">
                            <stop id="stop1" stop-color="rgba(244.982, 27.873, 27.873, 1)" offset="0%"></stop>
                            <stop id="stop2" stop-color="rgba(215.384, 57.561, 46.397, 1)" offset="100%"></stop>
                        </linearGradient>
                    </defs>
                <path fill="url(#sw-gradient)" d="M6,-13.8C8.7,-7.7,12.2,-7.5,15.9,-5.5C19.7,-3.5,23.6,0.2,25.1,5C26.7,9.9,25.8,15.8,21.7,16.5C17.5,17.2,9.9,12.6,4.8,12.4C-0.4,12.1,-3.1,16.1,-5.6,16.6C-8.2,17,-10.4,14,-17.2,11.8C-23.9,9.6,-35.1,8.1,-35.5,5.1C-35.9,2.1,-25.6,-2.4,-20.6,-7.8C-15.7,-13.2,-16.1,-19.5,-13.6,-25.7C-11.1,-31.8,-5.5,-37.8,-1.9,-34.8C1.7,-31.9,3.4,-19.9,6,-13.8Z" width="100%" height="100%" transform="translate(50 50)" stroke-width="0" style="transition: all 0.3s ease 0s;"></path>
              </svg>