<!--?xml version="1.0" standalone="no"?-->
              <svg id="sw-js-blob-svg" viewBox="0 0 100 100" xmlns="http://www.w3.org/2000/svg" version="1.1">
                    <defs> 
                        <linearGradient id="sw-gradient" x1="0" x2="1" y1="1" y2="0">
                            <stop id="stop1" stop-color="rgba(45, 48, 146, 1)" offset="0%"></stop>
                            <stop id="stop2" stop-color="rgba(38.644, 48.369, 108.375, 1)" offset="100%"></stop>
                        </linearGradient>
                    </defs>
                <path fill="url(#sw-gradient)" d="M18.7,-25.7C24.6,-25.4,29.8,-20.7,31.6,-15C33.4,-9.3,31.6,-2.5,30.7,4.4C29.7,11.4,29.6,18.4,26.2,23.2C22.9,28.1,16.3,30.6,9.3,33.6C2.3,36.5,-5.2,39.8,-9.5,36.5C-13.7,33.3,-14.8,23.6,-18,17.1C-21.1,10.7,-26.3,7.6,-30.9,2C-35.6,-3.6,-39.6,-11.8,-36.6,-16C-33.5,-20.1,-23.3,-20.2,-16,-19.9C-8.7,-19.6,-4.4,-18.8,1,-20.4C6.4,-22,12.9,-26,18.7,-25.7Z" width="100%" height="100%" transform="translate(50 50)" stroke-width="0" style="transition: all 0.3s ease 0s;"></path>
              </svg>