<!--?xml version="1.0" standalone="no"?-->
              <svg id="sw-js-blob-svg" viewBox="0 0 100 100" xmlns="http://www.w3.org/2000/svg" version="1.1">
                    <defs> 
                        <linearGradient id="sw-gradient" x1="0" x2="1" y1="1" y2="0">
                            <stop id="stop1" stop-color="rgba(45, 48, 146, 1)" offset="0%"></stop>
                            <stop id="stop2" stop-color="rgba(108.375, 82.067, 38.644, 1)" offset="100%"></stop>
                        </linearGradient>
                    </defs>
                <path fill="url(#sw-gradient)" d="M20.3,-25.3C25.3,-20,27.6,-12.6,28.4,-5.4C29.2,1.8,28.3,8.8,25.7,16.2C23.1,23.6,18.7,31.4,12.2,33.9C5.7,36.4,-2.8,33.7,-9.4,29.7C-16,25.6,-20.8,20.2,-23.7,14.1C-26.6,8.1,-27.8,1.5,-27.3,-5.5C-26.9,-12.5,-24.9,-19.9,-20.1,-25.2C-15.3,-30.5,-7.6,-33.8,0,-33.8C7.6,-33.8,15.3,-30.6,20.3,-25.3Z" width="100%" height="100%" transform="translate(50 50)" stroke-width="0" style="transition: all 0.3s ease 0s;"></path>
              </svg>